<svg width="134" height="28" viewBox="0 0 134 28" fill="none" xmlns="http://www.w3.org/2000/svg">
<path d="M9.15483 10.6378C9.09801 10.0649 8.85417 9.61979 8.4233 9.30256C7.99242 8.98532 7.40767 8.8267 6.66903 8.8267C6.16714 8.8267 5.74337 8.89773 5.39773 9.03977C5.05208 9.17708 4.78693 9.36884 4.60227 9.61506C4.42235 9.86127 4.33239 10.1406 4.33239 10.4531C4.32292 10.7135 4.37737 10.9408 4.49574 11.1349C4.61884 11.3291 4.78693 11.4972 5 11.6392C5.21307 11.7765 5.45928 11.8973 5.73864 12.0014C6.01799 12.1009 6.31629 12.1861 6.63352 12.2571L7.94034 12.5696C8.57481 12.7116 9.1572 12.901 9.6875 13.1378C10.2178 13.3745 10.6771 13.6657 11.0653 14.0114C11.4536 14.357 11.7543 14.7642 11.9673 15.233C12.1851 15.7017 12.2964 16.2391 12.3011 16.8452C12.2964 17.7353 12.0691 18.5071 11.6193 19.1605C11.1742 19.8092 10.5303 20.3134 9.6875 20.6733C8.84943 21.0284 7.83854 21.206 6.65483 21.206C5.48059 21.206 4.45786 21.026 3.58665 20.6662C2.72017 20.3063 2.04309 19.7737 1.5554 19.0682C1.07244 18.358 0.819129 17.4796 0.795455 16.4332H3.77131C3.80445 16.9209 3.94413 17.3281 4.19034 17.6548C4.44129 17.9768 4.77509 18.2206 5.19176 18.3864C5.61316 18.5473 6.08902 18.6278 6.61932 18.6278C7.14015 18.6278 7.59233 18.5521 7.97585 18.4006C8.36411 18.2491 8.66477 18.0384 8.87784 17.7685C9.09091 17.4986 9.19744 17.1884 9.19744 16.8381C9.19744 16.5114 9.10038 16.2367 8.90625 16.0142C8.71686 15.7917 8.4375 15.6023 8.06818 15.446C7.7036 15.2898 7.25616 15.1477 6.72585 15.0199L5.14205 14.6222C3.91572 14.3239 2.94744 13.8575 2.23722 13.223C1.52699 12.5885 1.17424 11.7339 1.17898 10.6591C1.17424 9.77841 1.40862 9.009 1.8821 8.35085C2.36032 7.69271 3.0161 7.17898 3.84943 6.80966C4.68277 6.44034 5.62973 6.25568 6.69034 6.25568C7.76989 6.25568 8.71212 6.44034 9.51705 6.80966C10.3267 7.17898 10.9564 7.69271 11.4062 8.35085C11.8561 9.009 12.0881 9.77131 12.1023 10.6378H9.15483ZM13.8157 8.99006V6.45455H25.7617V8.99006H21.3086V21H18.2688V8.99006H13.8157ZM40.4315 13.7273C40.4315 15.3134 40.1308 16.6629 39.5295 17.7756C38.9329 18.8883 38.1185 19.7382 37.0863 20.3253C36.0588 20.9077 34.9035 21.1989 33.6204 21.1989C32.3278 21.1989 31.1677 20.9053 30.1403 20.3182C29.1128 19.7311 28.3008 18.8812 27.7042 17.7685C27.1076 16.6558 26.8093 15.3087 26.8093 13.7273C26.8093 12.1411 27.1076 10.7917 27.7042 9.67898C28.3008 8.56629 29.1128 7.71875 30.1403 7.13636C31.1677 6.54924 32.3278 6.25568 33.6204 6.25568C34.9035 6.25568 36.0588 6.54924 37.0863 7.13636C38.1185 7.71875 38.9329 8.56629 39.5295 9.67898C40.1308 10.7917 40.4315 12.1411 40.4315 13.7273ZM37.3136 13.7273C37.3136 12.6998 37.1597 11.8333 36.8519 11.1278C36.5489 10.4223 36.1204 9.88731 35.5664 9.52273C35.0124 9.15814 34.3638 8.97585 33.6204 8.97585C32.877 8.97585 32.2283 9.15814 31.6744 9.52273C31.1204 9.88731 30.6895 10.4223 30.3817 11.1278C30.0787 11.8333 29.9272 12.6998 29.9272 13.7273C29.9272 14.7547 30.0787 15.6212 30.3817 16.3267C30.6895 17.0322 31.1204 17.5672 31.6744 17.9318C32.2283 18.2964 32.877 18.4787 33.6204 18.4787C34.3638 18.4787 35.0124 18.2964 35.5664 17.9318C36.1204 17.5672 36.5489 17.0322 36.8519 16.3267C37.1597 15.6212 37.3136 14.7547 37.3136 13.7273ZM42.7095 21V6.45455H48.4482C49.5466 6.45455 50.4841 6.65104 51.2607 7.04403C52.0419 7.43229 52.6361 7.9839 53.0433 8.69886C53.4553 9.40909 53.6612 10.2448 53.6612 11.206C53.6612 12.1719 53.4529 13.0028 53.0362 13.6989C52.6196 14.3902 52.0159 14.9205 51.2251 15.2898C50.4392 15.6591 49.4875 15.8438 48.37 15.8438H44.5277V13.3722H47.8729C48.46 13.3722 48.9477 13.2917 49.3359 13.1307C49.7242 12.9697 50.013 12.7282 50.2024 12.4062C50.3965 12.0843 50.4936 11.6842 50.4936 11.206C50.4936 10.723 50.3965 10.3158 50.2024 9.98438C50.013 9.65294 49.7218 9.40199 49.3288 9.23153C48.9406 9.05634 48.4505 8.96875 47.8587 8.96875H45.7848V21H42.7095ZM50.5646 14.3807L54.1797 21H50.7848L47.2479 14.3807H50.5646ZM58.3416 21H55.0462L60.0675 6.45455H64.0305L69.0447 21H65.7493L62.1058 9.77841H61.9922L58.3416 21ZM58.1357 15.2827H65.9197V17.6832H58.1357V15.2827ZM79.7567 11.1562C79.6573 10.8106 79.5176 10.5052 79.3377 10.2401C79.1578 9.97017 78.9376 9.7429 78.6772 9.55824C78.4215 9.36884 78.128 9.22443 77.7965 9.125C77.4698 9.02557 77.1076 8.97585 76.7099 8.97585C75.9665 8.97585 75.3131 9.16051 74.7496 9.52983C74.1909 9.89915 73.7553 10.4366 73.4428 11.142C73.1303 11.8428 72.9741 12.6998 72.9741 13.7131C72.9741 14.7263 73.128 15.5881 73.4357 16.2983C73.7435 17.0085 74.1791 17.5507 74.7425 17.9247C75.306 18.294 75.9712 18.4787 76.7383 18.4787C77.4343 18.4787 78.0285 18.3556 78.521 18.1094C79.0181 17.8584 79.3969 17.5057 79.6573 17.0511C79.9225 16.5966 80.055 16.0592 80.055 15.4389L80.68 15.5312H76.93V13.2159H83.0167V15.0483C83.0167 16.3267 82.7468 17.4252 82.207 18.3438C81.6673 19.2576 80.9239 19.9631 79.9769 20.4602C79.0299 20.9527 77.9457 21.1989 76.7241 21.1989C75.3604 21.1989 74.1625 20.8982 73.1303 20.2969C72.0981 19.6908 71.2932 18.8314 70.7156 17.7188C70.1426 16.6013 69.8562 15.2756 69.8562 13.7415C69.8562 12.5625 70.0266 11.5114 70.3675 10.5881C70.7132 9.66004 71.1961 8.87405 71.8164 8.23011C72.4367 7.58617 73.1587 7.09612 73.9826 6.75994C74.8065 6.42377 75.699 6.25568 76.6602 6.25568C77.484 6.25568 78.2511 6.37642 78.9613 6.6179C79.6715 6.85464 80.3013 7.19081 80.8505 7.62642C81.4045 8.06203 81.8567 8.58049 82.207 9.18182C82.5574 9.77841 82.7823 10.4366 82.8817 11.1562H79.7567ZM85.3267 21V6.45455H95.1278V8.99006H88.402V12.456H94.6236V14.9915H88.402V18.4645H95.1562V21H85.3267ZM99.2844 21.1847C98.8157 21.1847 98.4132 21.0189 98.0771 20.6875C97.7456 20.3513 97.5799 19.9489 97.5799 19.4801C97.5799 19.0161 97.7456 18.6184 98.0771 18.2869C98.4132 17.9555 98.8157 17.7898 99.2844 17.7898C99.739 17.7898 100.137 17.9555 100.478 18.2869C100.819 18.6184 100.989 19.0161 100.989 19.4801C100.989 19.7926 100.908 20.0791 100.748 20.3395C100.591 20.5952 100.385 20.8011 100.13 20.9574C99.8739 21.1089 99.5922 21.1847 99.2844 21.1847ZM103.53 21V6.45455H113.161V8.99006H106.605V12.456H112.521V14.9915H106.605V21H103.53ZM114.377 6.45455H117.821L121.138 12.7188H121.28L124.597 6.45455H128.042L122.736 15.858V21H119.682V15.858L114.377 6.45455ZM132.797 6.45455V21H129.721V6.45455H132.797Z" fill="#100A55"/>
</svg>
